<svg width="203" height="55" viewBox="0 0 203 55" fill="none" xmlns="http://www.w3.org/2000/svg">
<path fill-rule="evenodd" clip-rule="evenodd" d="M54.9147 27.4597L27.457 27.458L27.4587 54.9157L54.9147 27.4597Z" fill="#90002B"/>
<path fill-rule="evenodd" clip-rule="evenodd" d="M27.4587 0L27.457 27.456L54.9147 27.4577L27.4587 0Z" fill="#A70236"/>
<path fill-rule="evenodd" clip-rule="evenodd" d="M0 27.4577H27.456L27.4577 0L0 27.4577Z" fill="#D31048"/>
<path fill-rule="evenodd" clip-rule="evenodd" d="M27.4577 54.9157L27.456 27.458H0L27.4577 54.9157Z" fill="#A70236"/>
<path fill-rule="evenodd" clip-rule="evenodd" d="M35.3034 39.2251L27.4532 30.3994L19.6133 39.2251L27.4532 32.1244L35.3034 39.2251Z" fill="#FFFFFE"/>
<path fill-rule="evenodd" clip-rule="evenodd" d="M33.3418 41.1865L27.4531 35.3027L21.5742 41.1865L27.4531 36.2617L33.3418 41.1865Z" fill="#FFFFFE"/>
<path fill-rule="evenodd" clip-rule="evenodd" d="M31.3802 43.1481L27.4544 39.2256L23.5352 43.1481L27.4544 39.6135L31.3802 43.1481Z" fill="#FFFFFE"/>
<path fill-rule="evenodd" clip-rule="evenodd" d="M29.4186 45.1087L27.4508 43.1475L25.4961 45.1087L27.4508 43.3425L29.4186 45.1087Z" fill="#FFFFFE"/>
<path fill-rule="evenodd" clip-rule="evenodd" d="M37.263 37.264L28.8381 27.4469L37.263 17.6514L27.4515 26.0703L17.6504 17.6514L26.0651 27.4587L17.6504 37.264L27.4515 28.8285L37.263 37.264Z" fill="#FFFFFE"/>
<path fill-rule="evenodd" clip-rule="evenodd" d="M11.7679 27.445L9.80664 25.4961L11.5744 27.4616L9.80664 29.4186L11.7679 27.445Z" fill="#FFFFFE"/>
<path fill-rule="evenodd" clip-rule="evenodd" d="M15.6901 27.447L11.7676 23.5352L15.3007 27.4683L11.7676 31.3802L15.6901 27.447Z" fill="#FFFFFE"/>
<path fill-rule="evenodd" clip-rule="evenodd" d="M19.6123 27.4477L13.7285 21.5742L18.6308 27.458L13.7285 33.3418L19.6123 27.4477Z" fill="#FFFFFE"/>
<path fill-rule="evenodd" clip-rule="evenodd" d="M23.5345 27.4472L15.6895 19.6123L21.9857 27.4591L15.6911 35.3024L23.5345 27.4472Z" fill="#FFFFFE"/>
<path fill-rule="evenodd" clip-rule="evenodd" d="M44.1289 27.4657L46.0902 29.4186L44.3212 27.4657L46.0902 25.4961L44.1289 27.4657Z" fill="#FFFFFE"/>
<path fill-rule="evenodd" clip-rule="evenodd" d="M40.2051 27.4683L44.1259 31.3802L40.5993 27.4561L44.1276 23.5352L40.2051 27.4683Z" fill="#FFFFFE"/>
<path fill-rule="evenodd" clip-rule="evenodd" d="M35.3027 27.4544L41.1865 33.3418L36.2812 27.4582L41.1865 21.5742L35.3027 27.4544Z" fill="#FFFFFE"/>
<path fill-rule="evenodd" clip-rule="evenodd" d="M39.2259 19.6123L31.3809 27.4676L39.2259 35.3024L32.9219 27.4676L39.2259 19.6123Z" fill="#FFFFFE"/>
<path fill-rule="evenodd" clip-rule="evenodd" d="M35.3034 14.709L27.4532 21.8078L19.6133 14.709L27.4566 23.5347L35.3034 14.709Z" fill="#FFFFFE"/>
<path fill-rule="evenodd" clip-rule="evenodd" d="M33.3418 12.748L27.4531 17.6667L21.5742 12.748L27.4531 18.6318L33.3418 12.748Z" fill="#FFFFFE"/>
<path fill-rule="evenodd" clip-rule="evenodd" d="M31.3802 10.7871L27.4553 14.3201L23.5352 10.7871L27.4601 14.7096L31.3802 10.7871Z" fill="#FFFFFE"/>
<path fill-rule="evenodd" clip-rule="evenodd" d="M29.4186 8.8252L27.4517 10.5941L25.4961 8.8252L27.4572 10.7865L29.4186 8.8252Z" fill="#FFFFFE"/>
<path fill-rule="evenodd" clip-rule="evenodd" d="M79.0602 18.306H76.7131V13.9171H79.1575C81.3027 13.9171 81.6229 15.2713 81.6229 16.079C81.6229 17.4935 80.6885 18.306 79.0602 18.306ZM79.1575 11.0107H73.5469V28.4119H76.7131V21.213H78.8357C83.2824 21.213 84.8672 18.6089 84.8672 16.1758C84.8672 13.6769 83.366 11.0107 79.1575 11.0107Z" fill="#2C2A26"/>
<path fill-rule="evenodd" clip-rule="evenodd" d="M92.2597 15.9106L94.3542 20.6034H90.3078L92.2597 15.9106ZM86.9466 28.4111L89.0585 23.5033H95.6834L97.917 28.4111H101.205L93.3784 10.9111H91.1825L83.6621 28.4111H86.9466Z" fill="#2C2A26"/>
<path fill-rule="evenodd" clip-rule="evenodd" d="M105.715 25.5049V11.0107H102.545V28.4119H113.277V25.5049H105.715Z" fill="#2C2A26"/>
<path fill-rule="evenodd" clip-rule="evenodd" d="M128.742 28.4119H131.908V11.0107H129.113L123.721 17.6178L118.355 11.0107H115.529V28.4119H118.702V16.0964L123.339 21.8961H124.103L128.742 16.0964V28.4119Z" fill="#2C2A26"/>
<path fill-rule="evenodd" clip-rule="evenodd" d="M143.277 28.4119V21.1629H151.896V28.4119H155.066V11.0107H151.896V18.2576H143.277V11.0107H140.107V28.4119H143.277Z" fill="#2C2A26"/>
<path fill-rule="evenodd" clip-rule="evenodd" d="M159.018 28.4119H162.184V11.0107H159.018V28.4119Z" fill="#2C2A26"/>
<path fill-rule="evenodd" clip-rule="evenodd" d="M177.309 28.4119V25.5049H169.745V11.0107H166.578V28.4119H177.309Z" fill="#2C2A26"/>
<path fill-rule="evenodd" clip-rule="evenodd" d="M190.322 28.4119V25.5049H182.762V11.0107H179.592V28.4119H190.322Z" fill="#2C2A26"/>
<path fill-rule="evenodd" clip-rule="evenodd" d="M202.009 23.7373C202.009 20.5349 199.518 19.1375 197.518 18.017C196.04 17.1871 194.765 16.4713 194.765 15.2953C194.765 14.3526 195.698 13.6941 197.037 13.6941C198.328 13.6941 199.56 14.2423 200.704 15.3266L201.345 15.93V12.1359L201.178 12.0251C199.957 11.2194 198.592 10.7871 197.236 10.7871C193.913 10.7871 191.77 12.6843 191.77 15.6084C191.77 18.2694 193.996 19.6045 195.955 20.7823C197.597 21.7661 199.014 22.6223 199.014 24.0088C199.014 24.6748 198.379 25.7279 196.669 25.7279C195.144 25.7279 193.721 24.9389 192.547 23.4539L191.867 22.593V26.9036L192.02 27.0211C193.492 28.116 195.054 28.6328 196.94 28.6328C199.876 28.6328 202.009 26.5697 202.009 23.7373Z" fill="#2C2A26"/>
<path fill-rule="evenodd" clip-rule="evenodd" d="M79.5945 39.9452C79.5945 40.9431 78.9748 42.6427 76.6524 42.6427H75.0501V37.2478H76.5952C78.8079 37.2478 79.5945 38.6415 79.5945 39.9452ZM76.7758 35.8643H73.5469V44.0228H76.7933C79.6154 44.0228 81.1358 41.9236 81.1358 39.9452C81.1358 37.9758 79.7721 35.8643 76.7758 35.8643Z" fill="#858581"/>
<path fill-rule="evenodd" clip-rule="evenodd" d="M87.8125 42.6434V40.5996H91.0175V39.2195H87.8125V37.2484H91.1319V35.8652H86.3027V44.0234H91.2344V42.6434H87.8125Z" fill="#858581"/>
<path fill-rule="evenodd" clip-rule="evenodd" d="M100.975 35.8643L98.7623 41.0364L96.5335 35.8643H94.9922L98.543 44.0971H99.0266L102.502 35.8643H100.975Z" fill="#858581"/>
<path fill-rule="evenodd" clip-rule="evenodd" d="M108.066 42.6434V40.5996H111.272V39.2195H108.066V37.2484H111.385V35.8652H106.561V44.0234H111.489V42.6434H108.066Z" fill="#858581"/>
<path fill-rule="evenodd" clip-rule="evenodd" d="M118.164 42.6434V35.8652H116.654V44.0234H121.698V42.6434H118.164Z" fill="#858581"/>
<path fill-rule="evenodd" clip-rule="evenodd" d="M130.244 42.7243C128.592 42.7243 127.393 41.5534 127.393 39.9454C127.393 38.3336 128.592 37.1678 130.244 37.1678C131.904 37.1678 133.108 38.3336 133.108 39.9454C133.108 41.5534 131.904 42.7243 130.244 42.7243ZM130.244 35.7588C127.739 35.7588 125.854 37.5555 125.854 39.9454C125.854 42.3301 127.732 44.1282 130.223 44.1282C133.129 44.1282 134.651 42.0204 134.651 39.9454C134.651 37.5194 132.795 35.7588 130.244 35.7588Z" fill="#858581"/>
<path fill-rule="evenodd" clip-rule="evenodd" d="M142.08 39.2758H140.998V37.2478H142.128C143.123 37.2478 143.269 37.8702 143.269 38.2401C143.269 38.8994 142.835 39.2758 142.08 39.2758ZM142.128 35.8643H139.488V44.0228H140.998V40.6596H141.976C144.064 40.6596 144.808 39.4349 144.808 38.2885C144.808 37.1125 144.102 35.8643 142.128 35.8643Z" fill="#858581"/>
<path fill-rule="evenodd" clip-rule="evenodd" d="M155.87 35.8643L153.36 38.9474L150.848 35.8643H149.514V44.0225H151.019V38.2882L153.172 40.9792H153.539L155.693 38.2882V44.0225H157.196V35.8643H155.87Z" fill="#858581"/>
<path fill-rule="evenodd" clip-rule="evenodd" d="M163.954 42.6434V40.5996H167.156V39.2195H163.954V37.2484H167.269V35.8652H162.445V44.0234H167.374V42.6434H163.954Z" fill="#858581"/>
<path fill-rule="evenodd" clip-rule="evenodd" d="M179.202 35.8643V41.5706L174.169 35.8643H173V44.0225H174.436V38.3509L179.397 44.0225H180.636V35.8643H179.202Z" fill="#858581"/>
<path fill-rule="evenodd" clip-rule="evenodd" d="M185.904 35.8643V37.2478H188.615V44.0225H190.122V37.2478H192.832V35.8643H185.904Z" fill="#858581"/>
<path fill-rule="evenodd" clip-rule="evenodd" d="M199.901 39.1397C199.215 38.7523 198.624 38.4185 198.624 37.8775C198.624 37.4468 199.054 37.1443 199.673 37.1443C200.271 37.1443 200.844 37.3964 201.379 37.9013L201.699 38.2021V36.3921L201.616 36.3383C201.042 35.9612 200.404 35.7588 199.765 35.7588C198.229 35.7588 197.197 36.6704 197.197 38.0246C197.197 39.2759 198.243 39.9021 199.16 40.4554C199.925 40.9139 200.586 41.3132 200.586 41.953C200.586 42.261 200.29 42.7417 199.5 42.7417C198.801 42.7417 198.123 42.3666 197.584 41.6883L197.246 41.2509V43.314L197.319 43.3712C198.006 43.888 198.737 44.1286 199.626 44.1286C201.008 44.1286 202.009 43.1583 202.009 41.8235C202.009 40.3225 200.844 39.6687 199.901 39.1397Z" fill="#858581"/>
</svg>
