<svg xmlns="http://www.w3.org/2000/svg" width="112.363" height="103.142" viewBox="0 0 112.363 103.142">
  <g id="Group_9532" data-name="Group 9532" transform="translate(135.243 -529.625) rotate(90)">
    <path id="Path_23662" data-name="Path 23662" d="M561.96,351.078l2.06,8.09.51-.361-2.247-7.767Z" transform="translate(-23.182 -250.715)" fill="#c69c59"/>
    <path id="Path_23672" data-name="Path 23672" d="M627.845,112.566l-1.337-.276v-.2h.031l-.031-.944h3.8v-65.8h-3.164v-.753l1.139-.33a9.442,9.442,0,0,1,.724-1.083c.061-.076.886-1.071,1.287-1.477l.024-.024c.422-.422,1.618-1.489,1.618-1.489s-2.2-.6-2.688-2.157A14.361,14.361,0,0,1,628.7,34.8h-1.8l-.018-1.484V32.284a12.069,12.069,0,0,0,.865-5.149,9.391,9.391,0,0,0-1.834-3.953,9.588,9.588,0,0,0-1.765,4.012,11.682,11.682,0,0,0,.95,5.107l.01,2.516-1.8.085a14.557,14.557,0,0,1-.5,3.259c-.457,1.581-2.652,2.284-2.652,2.284a16.633,16.633,0,0,1,3.717,3.9l1.338.276v.736h-3.848v3.3a13,13,0,0,1-5.048,1.281c-4.858.142-10.221-3.653-10.221-3.653a7.981,7.981,0,0,0-.7,3.146c-.019,1.779-.557,9.6-.557,9.6l.95,3.014-3.223-7.316,1.181-5.282-1.638-3.172S591.269,51.964,587.9,51.2s-6.187-4.932-6.187-4.932l-10.437,2.709-1.333,3.748-1.522-3.3L554.1,47.494l-1.854,15.047.493-16.27-7.144.864V45.347h-3.8V44.292l1.139-.33a9.427,9.427,0,0,1,.724-1.083c.058-.071.884-1.067,1.285-1.475l.029-.028c.425-.422,1.615-1.487,1.615-1.487s-2.2-.6-2.686-2.155a14.3,14.3,0,0,1-.551-3.236h-1.8l-.014-1.093v-.6c0-.236,0-.5-.008-.656v-.168a12.055,12.055,0,0,0,.863-5.149,9.408,9.408,0,0,0-1.834-3.953,9.607,9.607,0,0,0-1.765,4.012,11.661,11.661,0,0,0,.95,5.107l.008,2.516-1.8.085a14.569,14.569,0,0,1-.5,3.254c-.46,1.574-2.654,2.282-2.654,2.282a16.639,16.639,0,0,1,3.715,3.9l1.338.276h0v1.038h-3.214v65.808h2.536v1.888l-1.139.33a17.429,17.429,0,0,1-3.653,4.071s2.2.6,2.686,2.157a14.284,14.284,0,0,1,.551,3.233h1.8l.03,2.516a12.059,12.059,0,0,0-.863,5.152,9.391,9.391,0,0,0,1.834,3.953,9.563,9.563,0,0,0,1.758-4.012,11.775,11.775,0,0,0-.95-5.107l-.008-2.516,1.8-.087a14.557,14.557,0,0,1,.5-3.259,2.3,2.3,0,0,1,.352-.708,12.27,12.27,0,0,1,2.3-1.579,16.635,16.635,0,0,1-3.717-3.9l-1.332-.257v-1.888h4.48v-2.091c2.172-.675,5.973-1.676,8.513-1.359l3.747.472,5.158,3.129,2.157-8.744.419,7.417,5.7,1.326v-8.385l1.83-2.988.668-3.054,1.535,3.4L573.1,106l1.83,6.7a126.577,126.577,0,0,0,12.965,0,97.469,97.469,0,0,1,11.606,0l1.412-13.256,1.419-6.945v9.2l1.4,9.6h7.718l.93-16.206,1.42,13.518,7.542.852v1.685h3.217v1.152l-1.139.33a17.463,17.463,0,0,1-3.653,4.073s2.2.6,2.686,2.155a14.39,14.39,0,0,1,.551,3.236h1.8l.031,2.513a12.06,12.06,0,0,0-.863,5.152,9.39,9.39,0,0,0,1.834,3.953,9.626,9.626,0,0,0,1.765-4.012,11.671,11.671,0,0,0-.95-5.107l-.008-2.516,1.8-.087a14.663,14.663,0,0,1,.5-3.259,2.37,2.37,0,0,1,.352-.708,12.364,12.364,0,0,1,2.308-1.579A16.45,16.45,0,0,1,627.845,112.566ZM540.639,35.057v-.139h0Zm-.318,87.224v.142h0ZM625.984,35.36V35.22h0Zm-.272,86.181v.139h0Z" transform="translate(-2.111)" fill="#7c351d"/>
    <path id="Path_23673" data-name="Path 23673" d="M627.839,115.306l-1.337-.276v-.2h.031l-.031-.944h3.8v-65.8h-3.164v-.753l1.139-.33A9.427,9.427,0,0,1,629,45.92c.061-.073.886-1.071,1.287-1.475l.024-.026c.417-.422,1.61-1.482,1.61-1.482s-2.2-.6-2.688-2.155a14.387,14.387,0,0,1-.551-3.236h-1.8l-.018-1.484V35.032a12.06,12.06,0,0,0,.865-5.149,9.372,9.372,0,0,0-1.834-3.953,9.607,9.607,0,0,0-1.765,4.012,11.692,11.692,0,0,0,.95,5.107l.01,2.516-1.8.087a14.569,14.569,0,0,1-.5,3.259c-.457,1.579-2.652,2.282-2.652,2.282a16.634,16.634,0,0,1,3.716,3.9l1.338.276V48.1h-3.848v3.3a13.036,13.036,0,0,1-5.048,1.279c-4.858.142-10.221-3.653-10.221-3.653a7.989,7.989,0,0,0-.7,3.148c-.019,1.782-.557,9.593-.557,9.593l.95,3.016-3.222-7.33,1.181-5.279-1.614-3.148s-10.843,5.692-14.209,4.932-6.187-4.932-6.187-4.932l-10.453,2.693-1.333,3.748-1.522-3.3L554.1,50.237l-1.854,15.045.487-16.263-7.138.859V48.087h-3.8V47.032l1.139-.33a9.419,9.419,0,0,1,.723-1.083c.058-.071.884-1.067,1.285-1.473l.029-.031c.425-.422,1.615-1.487,1.615-1.487s-2.2-.6-2.686-2.155a14.3,14.3,0,0,1-.551-3.236h-1.8l-.014-1.093v-.6c0-.236,0-.5-.008-.656v-.165a12.06,12.06,0,0,0,.863-5.152,9.391,9.391,0,0,0-1.834-3.953,9.626,9.626,0,0,0-1.765,4.012,11.67,11.67,0,0,0,.95,5.107l.008,2.516-1.8.087a14.558,14.558,0,0,1-.5,3.252c-.457,1.579-2.651,2.284-2.651,2.284a16.608,16.608,0,0,1,3.715,3.894l1.338.276h0v1.038h-3.217v65.808h2.536v1.888l-1.139.33a17.461,17.461,0,0,1-3.653,4.073s2.2.6,2.686,2.155a14.3,14.3,0,0,1,.551,3.236h1.8l.03,2.516a12.046,12.046,0,0,0-.863,5.149,9.39,9.39,0,0,0,1.834,3.953,9.564,9.564,0,0,0,1.758-4.012,11.777,11.777,0,0,0-.95-5.107l-.008-2.516,1.8-.087a14.564,14.564,0,0,1,.5-3.24,2.306,2.306,0,0,1,.352-.708,12.341,12.341,0,0,1,2.3-1.576,16.635,16.635,0,0,1-3.716-3.9l-1.332-.278v-1.888h4.479v-2.091c2.172-.675,5.972-1.676,8.512-1.359l3.746.472,5.158,3.129,2.157-8.732.419,7.417,5.7,1.326v-8.406l1.818-3,.668-3.051,1.547,3.42L573.1,108.74l1.83,6.7a125.783,125.783,0,0,0,12.964,0,96.864,96.864,0,0,1,11.605,0l1.412-13.254,1.418-6.945v9.2l1.4,9.6h7.718l.942-16.2,1.42,13.52,7.541.85V113.9h3.217v1.152l-1.139.33a17.462,17.462,0,0,1-3.653,4.073s2.2.6,2.686,2.155a14.39,14.39,0,0,1,.551,3.236h1.8l.031,2.516a12.055,12.055,0,0,0-.863,5.149,9.408,9.408,0,0,0,1.834,3.953,9.608,9.608,0,0,0,1.765-4.012,11.661,11.661,0,0,0-.95-5.107l-.008-2.516,1.8-.085a14.684,14.684,0,0,1,.5-3.261,2.428,2.428,0,0,1,.352-.708,12.314,12.314,0,0,1,2.307-1.576A16.556,16.556,0,0,1,627.839,115.306ZM540.639,37.8v-.139h0Zm-.318,87.227v.139h0ZM625.978,38.1V37.96h0Zm-.271,86.181v.139h0Z" transform="translate(-2.111 -2.093)" fill="#fcd683"/>
    <path id="Path_23675" data-name="Path 23675" d="M549.239,47.412l3.243.382-.014.288,4.453-.743c2.039-2.081,6.351-4.071,6.351-4.071s-3.833-.6-4.67-2.157a9.041,9.041,0,0,1-.958-3.233h-3.125l-.054-2.516s2.1-2.995,1.5-5.149-3.188-3.953-3.188-3.953-2.516,1.831-3.054,4.012,1.652,5.109,1.652,5.109l.017,2.516-3.132.076a9.017,9.017,0,0,1-.869,3.259c-.8,1.579-4.611,2.284-4.611,2.284S547.144,45.388,549.239,47.412Zm3.7-8.968V38.3h0Z" transform="translate(-12.421 -2.582)" fill="#c67446"/>
    <rect id="Rectangle_3451" data-name="Rectangle 3451" width="15.569" height="65.803" transform="translate(533.55 46.145)" fill="#f4d37d"/>
    <rect id="Rectangle_3452" data-name="Rectangle 3452" width="4.078" height="65.803" transform="translate(545.04 46.145)" fill="#dbba72"/>
    <path id="Path_23676" data-name="Path 23676" d="M566.607,138.869a317.048,317.048,0,0,1,.146,52.521,6.985,6.985,0,0,0,.253,3.278c.427,1.005,1.569,1.737,2.478,1.246.963-.522,1.074-1.949,1.055-3.125q-.248-15.517-.493-31.041c-.052-3.2-.1-6.4-.472-9.574-.371-3.257-1.062-6.608-.276-9.768a18.636,18.636,0,0,0,.958-4.012C570.355,134.347,566.22,134.344,566.607,138.869Z" transform="translate(-30.605 -85.977)" fill="#fff" opacity="0.52"/>
    <path id="Path_23677" data-name="Path 23677" d="M578.347,403.667H574.97V400.29h3.377Z" transform="translate(-37.014 -288.342)" fill="#c67446"/>
    <path id="Path_23678" data-name="Path 23678" d="M553.7,407.24l-3.243-.382.014-.288-4.456.743c-2.025,2.081-6.351,4.078-6.351,4.078s3.835.6,4.673,2.157a9.044,9.044,0,0,1,.958,3.233h3.125l.054,2.516s-2.1,2.995-1.5,5.149,3.188,3.936,3.188,3.936,2.516-1.831,3.068-4.012-1.652-5.107-1.652-5.107l-.016-2.516,3.125-.085a9.017,9.017,0,0,1,.871-3.243c.8-1.581,4.609-2.284,4.609-2.284S555.8,409.267,553.7,407.24Zm-3.7,8.968v.139h0Z" transform="translate(-10.045 -293.14)" fill="#c67446"/>
    <path id="Path_23680" data-name="Path 23680" d="M569.974,425.92l-17.464.146s8.387.708,10.171,1.416a5.6,5.6,0,0,1,2.306,1.6,1.781,1.781,0,0,1,.968-1.586A25.49,25.49,0,0,1,569.974,425.92Z" transform="translate(-19.855 -307.924)" fill="#8e5133"/>
    <path id="Path_23683" data-name="Path 23683" d="M577.085,98.33l-16.225.142,11.125,2.86s1.562-1.088,2.277-1.5S577.085,98.33,577.085,98.33Z" transform="translate(-26.234 -57.644)" fill="#8e5133"/>
    <path id="Path_23752" data-name="Path 23752" d="M1172.814,405.737l-3.271-.387.014-.29-4.5.75c-2.058,2.1-6.41,4.109-6.41,4.109s3.868.607,4.72,2.178a9.091,9.091,0,0,1,.968,3.264h3.153l.054,2.539s-2.124,3.023-1.515,5.192,3.219,3.991,3.219,3.991,2.539-1.85,3.084-4.043-1.652-5.156-1.652-5.156l-.017-2.539,3.153-.087a9.137,9.137,0,0,1,.878-3.29c.8-1.593,4.654-2.306,4.654-2.306S1174.931,407.781,1172.814,405.737Zm-3.731,9.06v.142h0Z" transform="translate(-547.213 -291.987)" fill="#c67446"/>
    <path id="Path_23753" data-name="Path 23753" d="M1189.239,424.59l-17.629.149s8.465.708,10.266,1.442a5.924,5.924,0,0,1,2.329,1.617,1.8,1.8,0,0,1,.975-1.6A26,26,0,0,1,1189.239,424.59Z" transform="translate(-557.114 -306.908)" fill="#8e5133"/>
    <path id="Path_23755" data-name="Path 23755" d="M1198.97,110.86h3.41v3.41h-3.41Z" transform="translate(-581.91 -67.217)" fill="#c67446"/>
    <path id="Path_23756" data-name="Path 23756" d="M1167.883,47l3.273.387-.014.29,4.5-.75c2.058-2.1,6.41-4.111,6.41-4.111s-3.868-.6-4.72-2.176a9.1,9.1,0,0,1-.968-3.264h-3.146l-.052-2.539s2.124-3.023,1.515-5.192-3.219-3.991-3.219-3.991-2.539,1.85-3.084,4.043,1.652,5.154,1.652,5.154l.016,2.542-3.153.085a9.127,9.127,0,0,1-.878,3.29c-.8,1.6-4.654,2.306-4.654,2.306S1165.773,44.952,1167.883,47Zm3.731-9.06v-.142h0Z" transform="translate(-549.283 -2.116)" fill="#c67446"/>
    <path id="Path_23757" data-name="Path 23757" d="M1199,116.975a21.935,21.935,0,0,1,3.41-.017v.788l-3.41-.363Z" transform="translate(-581.933 -71.819)" fill="#8e5133"/>
    <path id="Path_23758" data-name="Path 23758" d="M1196.028,98.37l-16.378.144,11.219,2.889s1.574-1.1,2.3-1.517S1196.028,98.37,1196.028,98.37Z" transform="translate(-567.149 -57.675)" fill="#8e5133"/>
    <rect id="Rectangle_3453" data-name="Rectangle 3453" width="15.717" height="66.426" transform="translate(614.201 45.901)" fill="#f4d37d"/>
    <rect id="Rectangle_3454" data-name="Rectangle 3454" width="4.116" height="66.426" transform="translate(625.803 45.901)" fill="#dbba72"/>
    <path id="Path_23760" data-name="Path 23760" d="M1180.766,138.041a319.941,319.941,0,0,1,.146,53.017,7.03,7.03,0,0,0,.257,3.3c.432,1.012,1.583,1.756,2.5,1.26.972-.529,1.086-1.968,1.067-3.155q-.248-15.661-.5-31.324c-.052-3.226-.1-6.462-.472-9.664-.375-3.287-1.071-6.665-.279-9.86a18.309,18.309,0,0,0,.965-4.052C1184.549,133.486,1180.374,133.486,1180.766,138.041Z" transform="translate(-564.089 -85.326)" fill="#fff" opacity="0.52"/>
  </g>
</svg>
